<?xml version="1.0" encoding="utf-8"?>
<!-- Generator: Adobe Illustrator 16.0.0, SVG Export Plug-In . SVG Version: 6.00 Build 0)  -->
<!DOCTYPE svg PUBLIC "-//W3C//DTD SVG 1.1//EN" "http://www.w3.org/Graphics/SVG/1.1/DTD/svg11.dtd">
<svg version="1.1" id="Layer_1" xmlns="http://www.w3.org/2000/svg" xmlns:xlink="http://www.w3.org/1999/xlink" x="0px" y="0px"
	 width="131.25px" height="23.5px" viewBox="0 0 131.25 23.5" enable-background="new 0 0 131.25 23.5" xml:space="preserve">
<path fill="#FFFFFF" d="M5.485,2.267c-0.864,0.562-1.527,1.427-1.628,2.17h0.342c0.844,0,1.387,0.382,1.387,1.246
	c0,0.885-0.623,1.487-1.628,1.487c-1.186,0-1.729-0.784-1.729-1.829c0-1.366,0.784-2.974,2.572-3.918L5.485,2.267z M9.926,2.267
	c-0.864,0.562-1.527,1.427-1.627,2.17H8.64c0.844,0,1.387,0.382,1.387,1.246c0,0.885-0.623,1.487-1.628,1.487
	c-1.186,0-1.728-0.784-1.728-1.829c0-1.366,0.784-2.974,2.572-3.918L9.926,2.267z"/>
<path fill="#FFFFFF" d="M18.871,6.989c-0.261,0.321-0.482,0.663-0.623,0.944c0.482,0.562,0.945,1.286,0.945,2.392
	c0,2.09-1.749,3.617-4.823,3.617c-0.623,0-1.246-0.121-1.688-0.262c-0.261,0.262-0.462,0.562-0.462,0.824
	c0,0.703,0.583,0.743,1.527,0.743h2.813c2.311,0,3.899,0.623,3.899,2.874c0,1.788-1.407,3.697-6.129,3.697
	c-3.959,0-4.903-1.226-4.903-2.531c0-1.267,0.904-1.89,2.07-2.412v-0.04c-1.005-0.321-1.326-1.005-1.326-1.607
	c0-0.644,0.301-1.206,1.226-2.07c-0.884-0.482-1.527-1.286-1.527-2.673c0-2.451,2.03-3.858,4.703-3.858
	c0.784,0,1.929,0.141,2.753,0.583c0.522-0.804,1.226-1.809,2.412-1.809c0.764,0,1.487,0.422,1.487,1.266
	c0,0.724-0.563,1.387-1.246,1.387c-0.542,0-0.724-0.241-0.924-0.663L18.871,6.989z M15.917,17.6h-2.914
	c-0.462,0.382-0.744,0.724-0.744,1.266c0,0.945,0.784,1.387,2.392,1.387c1.989,0,2.753-0.884,2.753-1.708
	C17.404,17.82,16.982,17.6,15.917,17.6z M14.551,7.974c-1.387,0-1.749,1.105-1.749,2.312c0,1.386,0.643,2.271,1.829,2.271
	c0.965,0,1.628-0.784,1.628-2.15C16.259,8.817,15.556,7.974,14.551,7.974z"/>
<path fill="#FFFFFF" d="M31.153,8.798c0,1.064-0.562,1.769-1.647,1.769c-0.905,0-1.407-0.423-1.407-1.005
	c0-0.281,0.1-0.604,0.462-1.267c-1.447-0.241-2.693,1.146-2.693,3.035v3.577c0,0.562,0.02,0.783,0.502,0.863l1.729,0.262v1.186
	h-6.592v-1.206l0.965-0.181c0.502-0.101,0.522-0.401,0.522-0.965V9.602c0-0.904-0.061-1.146-0.683-1.246l-0.985-0.141l0.141-1.226
	l3.778-0.222l0.241,0.141l0.141,1.709h0.061c0.442-0.824,1.286-1.99,3.055-1.99C30.068,6.627,31.153,7.331,31.153,8.798z"/>
<path fill="#FFFFFF" d="M36.461,6.627c2.452,0,4.019,1.407,4.019,3.839c0,0.603-0.08,1.406-0.261,2.05h-5.988
	c0.04,1.849,1.065,2.873,2.612,2.873c1.246,0,2.05-0.462,2.874-1.125l0.884,0.965c-0.804,1.024-2.13,2.271-4.481,2.271
	c-3.336,0-4.883-2.411-4.883-5.084C31.236,8.717,33.407,6.627,36.461,6.627z M37.647,10.988c0.04-0.262,0.061-0.703,0.061-1.065
	c0-1.406-0.563-1.828-1.507-1.828c-1.347,0-1.889,1.306-1.969,2.894H37.647z"/>
<path fill="#FFFFFF" d="M46.473,6.627c2.452,0,4.019,1.407,4.019,3.839c0,0.603-0.08,1.406-0.261,2.05h-5.988
	c0.04,1.849,1.065,2.873,2.612,2.873c1.246,0,2.05-0.462,2.874-1.125l0.884,0.965c-0.804,1.024-2.13,2.271-4.481,2.271
	c-3.336,0-4.883-2.411-4.883-5.084C41.248,8.717,43.418,6.627,46.473,6.627z M47.658,10.988c0.04-0.262,0.061-0.703,0.061-1.065
	c0-1.406-0.563-1.828-1.507-1.828c-1.347,0-1.889,1.306-1.969,2.894H47.658z"/>
<path fill="#FFFFFF" d="M55.418,11.249l2.552-2.291c0.382-0.321,0.342-0.522,0.04-0.603l-0.924-0.261l0.201-1.187h5.003v1.206
	l-0.603,0.121c-0.482,0.1-0.583,0.16-1.025,0.522l-2.773,2.291l2.954,3.617c0.684,0.863,1.065,1.146,1.668,1.146
	c0.261,0,0.582-0.081,0.804-0.161l0.281,1.005c-0.562,0.522-1.548,0.844-2.271,0.844c-1.186,0-2.03-0.361-2.994-1.668l-2.914-3.938
	v3.055c0,0.643,0.081,0.844,0.563,0.944l0.623,0.141v1.186h-5.546v-1.206l0.884-0.16c0.522-0.101,0.603-0.281,0.603-0.904V4.437
	c0-0.723-0.081-0.904-0.764-1.045l-0.904-0.181l0.161-1.266l4.16-0.121l0.221,0.222V11.249z"/>
<path d="M67.963,14.927c0,0.644,0.08,0.764,0.562,0.885l0.965,0.221v1.186h-6.05v-1.206l1.046-0.181
	c0.522-0.08,0.603-0.281,0.603-0.904V9.541c0-0.904-0.061-1.105-0.724-1.186l-0.944-0.141l0.141-1.226l4.16-0.241l0.241,0.101
	V14.927z M66.174,1.402c1.226,0,1.93,0.684,1.93,1.748c0,1.045-0.784,1.749-1.93,1.749s-1.909-0.684-1.909-1.749
	C64.265,2.105,65.009,1.402,66.174,1.402z"/>
<path d="M70.938,15.831c0.522-0.101,0.522-0.401,0.522-0.965V9.602c0-0.904-0.06-1.146-0.683-1.246l-0.985-0.141l0.141-1.226
	l3.799-0.222l0.241,0.141l0.141,1.789h0.06c0.543-0.944,1.327-2.07,3.336-2.07c2.713,0,3.276,1.588,3.276,3.437v4.964
	c0,0.543,0.06,0.724,0.623,0.824l0.944,0.16v1.206h-5.768v-1.186l0.724-0.161c0.522-0.101,0.603-0.281,0.603-0.844v-4.02
	c0-1.427-0.161-2.331-1.507-2.331c-1.286,0-2.07,0.804-2.07,2.612v3.658c0,0.562,0.061,0.764,0.503,0.864l0.844,0.221v1.186h-5.707
	v-1.206L70.938,15.831z"/>
<path fill="#FFFFFF" d="M82.115,7.149c1.709-0.2,2.211-0.904,2.432-3.657l1.628-0.181l0.302,0.141v3.456h2.934v1.568h-2.934v5.526
	c0,0.924,0.181,1.627,1.206,1.627c0.703,0,1.226-0.281,1.748-0.643l0.663,1.064c-0.844,0.864-2.01,1.447-3.376,1.447
	c-2.01,0-3.115-1.024-3.115-3.015V8.477h-1.487V7.149z"/>
<path fill="#FFFFFF" d="M95.401,6.627c2.451,0,4.02,1.407,4.02,3.839c0,0.603-0.081,1.406-0.262,2.05h-5.988
	c0.04,1.849,1.064,2.873,2.612,2.873c1.246,0,2.05-0.462,2.874-1.125l0.884,0.965c-0.804,1.024-2.13,2.271-4.481,2.271
	c-3.336,0-4.883-2.411-4.883-5.084C90.177,8.717,92.347,6.627,95.401,6.627z M96.587,10.988c0.04-0.262,0.061-0.703,0.061-1.065
	c0-1.406-0.562-1.828-1.508-1.828c-1.346,0-1.889,1.306-1.969,2.894H96.587z"/>
<path fill="#FFFFFF" d="M109.552,15.229c-0.984,1.186-2.411,2.271-4.461,2.271c-3.075,0-4.903-2.211-4.903-5.064
	c0-3.496,2.109-5.808,5.466-5.808c2.954,0,3.898,1.628,3.898,2.773c0,0.885-0.522,1.507-1.527,1.507
	c-0.482,0-1.487-0.12-1.487-1.085c0-0.301,0.201-0.643,0.623-1.346c-0.342-0.241-0.764-0.362-1.346-0.362
	c-1.89,0-2.633,1.648-2.633,3.839c0,2.371,1.045,3.436,2.612,3.436c1.286,0,2.05-0.462,2.914-1.125L109.552,15.229z"/>
<path fill="#FFFFFF" d="M110.841,15.831c0.522-0.101,0.522-0.401,0.522-0.965V4.356c0-0.703-0.141-0.864-0.764-0.984l-0.904-0.161
	l0.161-1.266l4.159-0.121l0.222,0.222v6.27h0.061c0.441-0.663,1.386-1.688,3.154-1.688c2.633,0,3.235,1.588,3.235,3.437v4.964
	c0,0.543,0.061,0.724,0.623,0.824l0.944,0.16v1.206h-5.767v-1.186l0.723-0.161c0.522-0.101,0.604-0.281,0.604-0.844v-4.02
	c0-1.427-0.161-2.331-1.508-2.331c-1.205,0-2.069,0.804-2.069,2.612v3.658c0,0.562,0.061,0.764,0.502,0.864l0.845,0.221v1.186
	h-5.708v-1.206L110.841,15.831z"/>
<path fill="#FFFFFF" d="M122.399,6.587c0.864-0.562,1.527-1.306,1.628-2.05h-0.281c-0.844,0-1.447-0.502-1.447-1.366
	c0-0.885,0.623-1.487,1.628-1.487c1.186,0,1.769,0.804,1.769,1.789c0,1.427-0.824,3.014-2.612,3.958L122.399,6.587z M126.86,6.587
	c0.864-0.562,1.527-1.306,1.628-2.05h-0.281c-0.844,0-1.446-0.502-1.446-1.366c0-0.885,0.622-1.487,1.627-1.487
	c1.186,0,1.769,0.804,1.769,1.789c0,1.427-0.823,3.014-2.612,3.958L126.86,6.587z"/>
</svg>
